<?xml version="1.0" encoding="iso-8859-1"?>
<!-- Generator: Adobe Illustrator 18.1.1, SVG Export Plug-In . SVG Version: 6.00 Build 0)  -->
<svg version="1.1" id="Capa_1" xmlns="http://www.w3.org/2000/svg" xmlns:xlink="http://www.w3.org/1999/xlink" x="0px" y="0px" fill="#fff"
	 viewBox="0 0 33.1 33.1" style="enable-background:new 0 0 33.1 33.1;" xml:space="preserve">
<g>
	<g id="c67_crown">
		<path d="M8.824,9.897c0.893,0,1.613-0.648,1.613-1.449s-0.72-1.449-1.613-1.449c-0.887,0-1.609,0.648-1.609,1.449
			S7.938,9.897,8.824,9.897z"/>
		<path d="M16.184,7.247c1.527,0,2.764-1.111,2.764-2.484s-1.237-2.487-2.764-2.487c-1.523,0-2.762,1.113-2.762,2.486
			S14.66,7.247,16.184,7.247z"/>
		<ellipse cx="24.156" cy="8.532" rx="1.611" ry="1.45"/>
		<rect x="6.209" y="25.852" width="19.951" height="4.971"/>
		<ellipse cx="30.338" cy="7.994" rx="2.762" ry="2.485"/>
		<path d="M5.523,8.084c0-1.374-1.234-2.485-2.764-2.485C1.238,5.598,0,6.71,0,8.084c0,1.372,1.238,2.485,2.76,2.485
			C4.289,10.569,5.523,9.456,5.523,8.084z"/>
		<path d="M27.229,10.94l-3.783,3.404l0.318-3.468c0,0-0.52-0.783-1.199-0.15l-2.293,2.93l-2.984-4.701c0,0-0.822-0.84-2.211,0
			l-2.912,4.584l-1.973-2.812c0,0-0.504-0.797-1.139,0.051l0.207,3.783L5.531,10.94c0,0-1.152-0.465-1.703,0.655l2.41,13.263h19.887
			l3.314-12.922C29.439,11.936,29.068,10.227,27.229,10.94z"/>
	</g>
	<g id="Capa_1_185_">
	</g>
</g>
<g>
</g>
<g>
</g>
<g>
</g>
<g>
</g>
<g>
</g>
<g>
</g>
<g>
</g>
<g>
</g>
<g>
</g>
<g>
</g>
<g>
</g>
<g>
</g>
<g>
</g>
<g>
</g>
<g>
</g>
</svg>
